<svg width="393" height="471" viewBox="0 0 393 471" fill="none" xmlns="http://www.w3.org/2000/svg">
<mask id="path-1-inside-1_927_3459" fill="white">
<path fill-rule="evenodd" clip-rule="evenodd" d="M89.5226 575C127.702 575 162.969 554.091 191.468 518.731C219.967 554.091 255.233 575 293.413 575C345.526 575 392.212 536.045 423.669 474.559C455.127 536.045 501.812 575 553.925 575C648.655 575 725.448 446.282 725.448 287.5C725.448 128.718 648.655 0 553.925 0C501.812 0 455.127 38.9554 423.669 100.441C392.212 38.9554 345.526 0 293.413 0C255.233 0 219.967 20.9092 191.468 56.2687C162.969 20.9092 127.702 0 89.5226 0C-5.20671 0 -82 128.718 -82 287.5C-82 446.282 -5.20671 575 89.5226 575Z"/>
</mask>
<path d="M191.468 518.731L193.804 516.849L191.468 513.951L189.132 516.849L191.468 518.731ZM423.669 474.559L426.34 473.193L423.669 467.972L420.999 473.193L423.669 474.559ZM423.669 100.441L420.999 101.808L423.669 107.028L426.34 101.808L423.669 100.441ZM191.468 56.2687L189.132 58.1513L191.468 61.0494L193.804 58.1513L191.468 56.2687ZM189.132 516.849C161.006 551.746 126.522 572 89.5226 572V578C128.883 578 164.932 556.436 193.804 520.614L189.132 516.849ZM293.413 572C256.414 572 221.93 551.746 193.804 516.849L189.132 520.614C218.004 556.436 254.053 578 293.413 578V572ZM420.999 473.193C389.777 534.216 343.9 572 293.413 572V578C347.153 578 394.646 537.873 426.34 475.925L420.999 473.193ZM553.925 572C503.438 572 457.561 534.216 426.34 473.193L420.999 475.925C452.693 537.873 500.186 578 553.925 578V572ZM722.448 287.5C722.448 366.444 703.352 437.768 672.634 489.256C641.879 540.807 599.814 572 553.925 572V578C602.766 578 646.462 544.834 677.786 492.33C709.148 439.764 728.448 367.338 728.448 287.5H722.448ZM553.925 3C599.814 3 641.879 34.1935 672.634 85.7438C703.352 137.232 722.448 208.556 722.448 287.5H728.448C728.448 207.662 709.148 135.236 677.786 82.6698C646.462 30.1656 602.766 -3 553.925 -3V3ZM426.34 101.808C457.561 40.7841 503.438 3 553.925 3V-3C500.186 -3 452.693 37.1267 420.999 99.0747L426.34 101.808ZM293.413 3C343.9 3 389.777 40.7841 420.999 101.808L426.34 99.0747C394.646 37.1267 347.153 -3 293.413 -3V3ZM193.804 58.1513C221.93 23.2544 256.414 3 293.413 3V-3C254.053 -3 218.004 18.5641 189.132 54.3861L193.804 58.1513ZM89.5226 3C126.522 3 161.006 23.2544 189.132 58.1513L193.804 54.3861C164.932 18.5641 128.883 -3 89.5226 -3V3ZM-79 287.5C-79 208.556 -59.9036 137.232 -29.1859 85.7438C1.56912 34.1935 43.6342 3 89.5226 3V-3C40.6817 -3 -3.01453 30.1656 -34.3385 82.6698C-65.6997 135.236 -85 207.662 -85 287.5H-79ZM89.5226 572C43.6342 572 1.56912 540.807 -29.1859 489.256C-59.9036 437.768 -79 366.444 -79 287.5H-85C-85 367.338 -65.6997 439.764 -34.3385 492.33C-3.01453 544.834 40.6817 578 89.5226 578V572Z" fill="black" mask="url(#path-1-inside-1_927_3459)"/>
</svg>
