<svg width="475" height="396" viewBox="0 0 475 396" fill="none" xmlns="http://www.w3.org/2000/svg">
<circle cx="128" cy="47" r="16" fill="#E2E2E2"/>
<circle cx="310" cy="47" r="16" fill="#E2E2E2"/>
<circle cx="254.5" cy="6.5" r="6.5" fill="#E2E2E2"/>
<circle cx="372.5" cy="89.5" r="6.5" fill="#E2E2E2"/>
<circle cx="273.5" cy="129.5" r="6.5" fill="#E2E2E2"/>
<circle cx="196.5" cy="89.5" r="6.5" fill="#E2E2E2"/>
<circle cx="111.5" cy="82.5" r="6.5" fill="#E2E2E2"/>
<circle cx="165.5" cy="194.5" r="6.5" fill="#E2E2E2"/>
<circle cx="359.5" cy="140.5" r="10.5" fill="#E2E2E2"/>
<circle cx="110.5" cy="244.5" r="10.5" fill="#E2E2E2"/>
<circle cx="157.5" cy="129.5" r="10.5" fill="#E2E2E2"/>
<circle cx="244.5" cy="150.5" r="10.5" fill="#E2E2E2"/>
<circle cx="317.5" cy="184.5" r="10.5" fill="#E2E2E2"/>
<circle cx="376" cy="250" r="16" fill="#E2E2E2"/>
<circle cx="143" cy="271" r="16" fill="#E2E2E2"/>
<path d="M472 396C472 362.863 367.011 336 237.5 336C107.989 336 3 362.863 3 396" stroke="#999999" stroke-width="5"/>
<ellipse cx="237.5" cy="381.5" rx="63.5" ry="10.5" fill="#E2E2E2"/>
<path d="M230.187 257.369C227.966 257.369 226.148 255.547 226.148 253.321V199.047C226.148 196.821 227.966 195 230.187 195C232.408 195 234.225 196.821 234.225 199.047V253.321C234.225 255.547 232.408 257.369 230.187 257.369Z" fill="black"/>
<path d="M230.188 203.115C230.188 203.115 184.436 199.654 176.359 246.198C176.359 246.198 226.17 221.935 230.208 236.1C234.246 221.935 284.057 246.198 284.057 246.198C275.96 199.654 230.188 203.115 230.188 203.115Z" fill="white"/>
<path d="M176.358 250.246C175.49 250.246 174.642 249.962 173.935 249.436C172.724 248.526 172.118 247.008 172.381 245.51C180.619 197.955 226.027 198.886 230.187 199.068C234.366 198.865 279.755 197.955 288.013 245.51C288.275 247.008 287.67 248.526 286.458 249.436C285.247 250.347 283.631 250.509 282.259 249.841C266.833 242.333 241.978 233.166 234.972 236.303C234.285 236.606 234.144 236.91 234.063 237.213C233.559 238.954 231.984 240.148 230.187 240.148C228.39 240.148 226.795 238.954 226.31 237.213C226.229 236.91 226.088 236.606 225.402 236.303C218.395 233.166 193.541 242.333 178.115 249.841C177.55 250.104 176.944 250.246 176.358 250.246ZM238.788 227.662C250.418 227.662 267.782 234.441 278.18 239.035C267.499 204.795 232.105 207.041 230.51 207.162C230.308 207.162 230.106 207.162 229.904 207.162C228.289 207.041 192.895 204.936 182.214 239.035C195.055 233.369 218.516 224.363 228.693 228.917C229.218 229.159 229.722 229.422 230.187 229.726C230.651 229.422 231.156 229.139 231.701 228.917C233.639 228.046 236.062 227.682 238.788 227.682V227.662Z" fill="black"/>
<path d="M278.32 335.421C278.32 320.972 263.621 322.146 271.051 309.68C281.954 291.407 270.425 270.219 252.072 262.57C218.313 248.505 188.491 272.506 183.423 303.042C177.366 339.468 191.459 363.752 231.881 363.752C254.091 363.752 278.32 357.681 278.32 335.421Z" fill="white"/>
<path d="M231.881 367.131C212.498 367.131 198.102 361.728 189.097 351.104C179.608 339.893 176.579 323.542 180.092 302.496C183.02 284.91 193.58 269.51 208.38 261.315C222.049 253.726 238.019 253.058 253.385 259.453C264.59 264.128 273.414 273.376 276.987 284.222C280.016 293.43 278.946 303.103 273.979 311.44C271.233 316.054 272.142 317.046 275.15 320.365C277.916 323.4 281.712 327.549 281.712 335.441C281.712 355.596 263.561 367.151 231.902 367.151L231.881 367.131ZM232.306 261.8C223.745 261.8 216.738 264.391 211.65 267.224C198.648 274.448 189.34 288.047 186.755 303.609C183.606 322.591 186.129 337.1 194.266 346.733C201.919 355.778 214.578 360.372 231.881 360.372C247.973 360.372 274.948 357.134 274.948 335.421C274.948 330.139 272.626 327.609 270.163 324.918C266.892 321.336 262.834 316.904 268.164 307.96C273.232 299.481 272.263 291.528 270.547 286.347C267.579 277.342 260.189 269.632 250.78 265.706C244.036 262.893 237.838 261.821 232.306 261.821V261.8Z" fill="black"/>
<path d="M246.339 290.051C250.286 290.051 253.486 286.843 253.486 282.887C253.486 278.93 250.286 275.723 246.339 275.723C242.391 275.723 239.191 278.93 239.191 282.887C239.191 286.843 242.391 290.051 246.339 290.051Z" fill="black"/>
<path d="M266.106 385C264.895 385 263.824 384.251 263.38 383.138C262.795 381.621 257.565 368.103 257.485 362.679C257.464 361.06 258.757 359.725 260.372 359.705H260.412C262.007 359.705 263.32 360.979 263.34 362.598C263.38 365.512 265.985 373.384 268.024 378.889C270.508 378.363 274.99 376.764 279.109 371.948C280.159 370.713 282.016 370.572 283.228 371.624C284.459 372.676 284.601 374.538 283.551 375.772C275.737 384.899 266.49 385.02 266.106 385.02V385Z" fill="black"/>
<path d="M182.496 377.189C182.274 377.189 182.032 377.169 181.81 377.108C176.661 375.813 168.807 365.472 166.546 362.335C165.798 361.303 165.819 359.907 166.606 358.915C167.394 357.904 168.726 357.539 169.917 358.025C170.301 358.167 179.932 361.728 190.148 352.804C191.34 351.772 193.137 351.893 194.166 353.087C195.196 354.281 195.075 356.082 193.884 357.114C187.12 363.023 180.457 364.501 175.551 364.541C178.68 368.204 181.79 371.239 183.223 371.604C184.737 371.988 185.666 373.526 185.283 375.064C184.959 376.359 183.809 377.229 182.516 377.229L182.496 377.189Z" fill="black"/>
<path d="M262.309 302.192C261.441 302.192 260.613 301.848 260.007 301.221C259.24 300.432 258.937 299.319 259.179 298.246L261.017 290.293C261.32 288.978 262.39 288.007 263.722 287.825C264.086 287.784 272.687 286.651 288.88 286.651C292.514 286.651 296.31 286.712 300.146 286.833C304.608 286.975 306.708 289.666 306.749 292.115C306.789 294.503 304.871 297.214 300.55 297.518C285.791 298.55 273.131 300.108 262.935 302.132C262.733 302.172 262.511 302.192 262.309 302.192Z" fill="white"/>
<path d="M288.903 289.889C292.295 289.889 296.01 289.929 300.068 290.051C304.551 290.192 304.793 293.977 300.351 294.3C287.833 295.171 274.184 296.607 262.332 298.975L264.169 291.022C264.169 291.022 272.75 289.889 288.923 289.889M288.923 283.454C272.528 283.454 263.705 284.607 263.341 284.648C260.697 284.992 258.536 286.955 257.93 289.585L256.093 297.538C255.608 299.663 256.214 301.909 257.749 303.467C258.98 304.722 260.636 305.43 262.352 305.43C262.776 305.43 263.2 305.39 263.604 305.309C273.679 303.285 286.197 301.768 300.815 300.736C306.953 300.311 310.083 296.041 310.002 292.054C309.921 288.007 306.55 283.818 300.29 283.636C296.434 283.514 292.618 283.454 288.943 283.454H288.923Z" fill="black"/>
</svg>
