<svg width="333" height="218" viewBox="0 0 333 218" fill="none" xmlns="http://www.w3.org/2000/svg">
<rect x="57.5" y="1.5" width="218" height="102" rx="14.5" fill="white" stroke="black" stroke-width="3"/>
<rect x="40.5" y="10.5" width="252" height="124" rx="18.5" fill="white" stroke="black" stroke-width="3"/>
<rect x="22.5" y="23.5" width="288" height="142" rx="27.5" fill="white" stroke="black" stroke-width="3"/>
<rect x="1.5" y="38.5" width="330" height="178" rx="27.5" fill="white" stroke="black" stroke-width="3"/>
<path d="M138.25 136.125C136.938 136.125 135.844 135.833 134.969 135.25C134.115 134.667 133.479 133.917 133.062 133C132.646 132.083 132.479 131.115 132.562 130.094C132.667 129.073 133.021 128.115 133.625 127.219C134.25 126.323 135.156 125.604 136.344 125.062L186.406 102.156C188.052 101.406 189.552 101.104 190.906 101.25C192.26 101.396 193.375 101.885 194.25 102.719C195.125 103.552 195.646 104.646 195.812 106C196 107.333 195.719 108.833 194.969 110.5L172.062 160.406C171.5 161.635 170.76 162.573 169.844 163.219C168.927 163.865 167.948 164.229 166.906 164.312C165.885 164.417 164.917 164.26 164 163.844C163.083 163.448 162.333 162.812 161.75 161.938C161.188 161.062 160.906 159.979 160.906 158.688L160.875 136.5C160.875 136.312 160.854 136.219 160.812 136.219C160.792 136.198 160.698 136.188 160.531 136.188L138.25 136.125Z" fill="black"/>
</svg>
