<svg width="393" height="340" viewBox="0 0 393 340" fill="none" xmlns="http://www.w3.org/2000/svg">
<mask id="path-1-inside-1_927_3455" fill="white">
<path fill-rule="evenodd" clip-rule="evenodd" d="M-37.7788 517C-3.45049 517 28.2582 498.2 53.8826 466.408C79.507 498.2 111.216 517 145.544 517C192.401 517 234.376 481.974 262.661 426.691C290.946 481.974 332.922 517 379.778 517C464.952 517 533.999 401.266 533.999 258.5C533.999 115.734 464.952 0 379.778 0C332.922 0 290.946 35.0259 262.661 90.3093C234.376 35.0259 192.401 0 145.544 0C111.216 0 79.507 18.7998 53.8826 50.5921C28.2582 18.7998 -3.45049 0 -37.7788 0C-122.953 0 -192 115.734 -192 258.5C-192 401.266 -122.953 517 -37.7788 517Z"/>
</mask>
<path d="M53.8826 466.408L56.2184 464.525L53.8826 461.627L51.5469 464.525L53.8826 466.408ZM262.661 426.691L265.332 425.324L262.661 420.104L259.99 425.324L262.661 426.691ZM262.661 90.3093L259.99 91.6758L262.661 96.8958L265.332 91.6758L262.661 90.3093ZM53.8826 50.5921L51.5469 52.4747L53.8826 55.3727L56.2184 52.4747L53.8826 50.5921ZM51.5469 464.525C26.2953 495.855 -4.63087 514 -37.7788 514V520C-2.2701 520 30.2212 500.545 56.2184 468.291L51.5469 464.525ZM145.544 514C112.396 514 81.47 495.855 56.2184 464.525L51.5469 468.291C77.5441 500.545 110.035 520 145.544 520V514ZM259.99 425.324C231.942 480.145 190.774 514 145.544 514V520C194.027 520 236.811 483.803 265.332 428.057L259.99 425.324ZM379.778 514C334.548 514 293.38 480.145 265.332 425.324L259.99 428.057C288.511 483.803 331.295 520 379.778 520V514ZM530.999 258.5C530.999 329.436 513.839 393.51 486.253 439.75C458.629 486.052 420.889 514 379.778 514V520C423.841 520 463.212 490.08 491.405 442.824C519.636 395.506 536.999 330.33 536.999 258.5H530.999ZM379.778 3C420.889 3 458.629 30.9475 486.253 77.2499C513.839 123.49 530.999 187.564 530.999 258.5H536.999C536.999 186.67 519.636 121.494 491.405 74.1759C463.212 26.9197 423.841 -3 379.778 -3V3ZM265.332 91.6758C293.38 36.8545 334.548 3 379.778 3V-3C331.295 -3 288.511 33.1972 259.99 88.9429L265.332 91.6758ZM145.544 3C190.774 3 231.942 36.8545 259.99 91.6758L265.332 88.9429C236.811 33.1972 194.027 -3 145.544 -3V3ZM56.2184 52.4747C81.47 21.145 112.396 3 145.544 3V-3C110.035 -3 77.5441 16.4546 51.5469 48.7095L56.2184 52.4747ZM-37.7788 3C-4.63087 3 26.2953 21.145 51.5469 52.4747L56.2184 48.7095C30.2212 16.4546 -2.2701 -3 -37.7788 -3V3ZM-189 258.5C-189 187.564 -171.84 123.49 -144.253 77.2499C-116.629 30.9475 -78.8896 3 -37.7788 3V-3C-81.8421 -3 -121.213 26.9197 -149.406 74.1759C-177.636 121.494 -195 186.67 -195 258.5H-189ZM-37.7788 514C-78.8896 514 -116.629 486.052 -144.253 439.75C-171.84 393.51 -189 329.436 -189 258.5H-195C-195 330.33 -177.636 395.506 -149.406 442.824C-121.213 490.08 -81.8421 520 -37.7788 520V514Z" fill="black" mask="url(#path-1-inside-1_927_3455)"/>
</svg>
