<svg width="253" height="19" viewBox="0 0 253 19" fill="none" xmlns="http://www.w3.org/2000/svg">
<path d="M93.1534 3.4994C124.731 3.34109 156.194 2.00306 187.773 1.82503C187.712 1.28446 187.678 0.726267 187.617 0.185692C125.435 4.6872 59.8272 -0.331608 0.645491 15.7192C-0.344443 15.9769 -0.00345295 17.274 1.06839 17.3007C84.7618 18.5962 168.354 17.5625 251.737 14.905C252.971 14.8654 252.78 13.3422 251.581 13.2657C174.012 8.45528 94.337 4.09057 18.4041 15.739C17.2627 15.9249 17.2787 17.3546 18.5604 17.3783C89.3212 18.9034 159.132 11.7222 229.465 9.1261C230.699 9.0865 230.507 7.56334 229.308 7.48676C161.605 3.45001 93.993 4.45967 26.5152 5.75785C26.5765 6.29842 26.6102 6.85661 26.6715 7.39718C100.334 4.11657 174.386 4.77557 248.385 9.35831C248.324 8.81774 248.29 8.25955 248.229 7.71897C167.619 10.421 86.165 6.68684 6.24966 14.7614C5.06102 14.8841 5.17636 16.3812 6.40595 16.4008C83.9571 17.2023 161.274 11.7953 238.976 17.8861C238.915 17.3455 238.881 16.7873 238.82 16.2467C175.363 17.7096 111.638 14.0325 48.1811 15.4954C48.3205 16.0422 48.4859 16.5912 48.6253 17.138C52.1432 16.3894 55.7548 16.1045 59.2744 15.3361C60.5814 15.0445 60.1617 13.4236 58.8286 13.7132C55.3107 14.4619 51.6991 14.7467 48.1811 15.4954C46.8221 15.7828 47.2348 17.1651 48.6253 17.138C112.082 15.6752 175.807 19.3522 239.264 17.8894C240.523 17.8716 240.305 16.3463 239.108 16.25C161.404 10.179 84.0887 15.5663 6.53754 14.7647C6.59884 15.3053 6.63253 15.8635 6.69383 16.4041C86.6091 8.32949 168.065 12.0439 248.699 9.36372C249.933 9.32412 249.741 7.80096 248.543 7.72438C174.335 3.12489 100.072 2.48857 26.2258 5.77424C25.0159 5.83564 25.1753 7.43556 26.3821 7.41358C93.8843 6.13721 161.496 5.12755 229.175 9.14249C229.114 8.60192 229.08 8.04373 229.019 7.50315C158.896 10.0963 89.2706 17.2527 18.6919 15.7423C18.7533 16.2829 18.7869 16.8411 18.8482 17.3817C94.5974 5.73828 174.062 10.106 251.448 14.9214C251.386 14.3808 251.353 13.8226 251.291 13.2821C168.094 15.9148 84.7112 16.9455 1.20156 15.6449C1.34253 16.1721 1.4835 16.6992 1.62446 17.2264C60.5917 1.23761 126.116 6.30927 188.061 1.82835C189.273 1.74724 189.136 0.188836 187.905 0.189007C156.327 0.347326 124.864 1.68535 93.2866 1.84367C91.8977 1.85099 91.7645 3.50673 93.1534 3.4994Z" fill="#B9F245"/>
</svg>
